<svg width="100%" height="100%" viewBox="0 0 17 16" fill="none" xmlns="http://www.w3.org/2000/svg">
<path fill-rule="evenodd" clip-rule="evenodd" d="M15.2397 6.28656C16.2009 6.58392 16.8506 7.2703 16.9777 8.12211C17.1084 8.99905 16.6571 9.87636 15.7341 10.5579C14.9332 12.7186 13.8377 15.2873 13.0143 15.741C12.8146 15.8506 12.4391 15.997 11.4849 15.997C9.6505 15.997 5.9992 15.4071 4.96396 14.6806C4.7753 14.5481 4.66356 14.3353 4.66356 14.1087V7.32093C4.66356 7.107 4.76344 6.90447 4.93526 6.77058C4.98716 6.7303 6.219 5.77455 7.5055 5.0757C9.22416 4.1417 10.4013 2.91444 10.6361 2.23395C10.6785 2.11094 10.7172 1.99025 10.7546 1.87312C11.0073 1.08354 11.3535 0.00227594 12.679 0.00227594C13.3649 0.00227594 13.9295 0.381824 14.2279 1.04359C14.7066 2.10541 14.4535 3.96093 13.1663 5.75601C13.8682 5.91895 14.731 6.12897 15.2397 6.28656ZM14.4485 9.87654C14.5001 9.73587 14.5963 9.61447 14.7232 9.53068C15.3035 9.14685 15.6036 8.70756 15.5464 8.32481C15.5011 8.0196 15.2225 7.75966 14.8014 7.6297C13.9177 7.35551 11.7464 6.88166 11.7246 6.87702C11.4725 6.82194 11.2697 6.64044 11.1924 6.40012C11.1151 6.16017 11.1751 5.89809 11.3497 5.71233C12.9379 4.02796 13.2145 2.29956 12.9038 1.61034C12.8141 1.41121 12.7295 1.41121 12.679 1.41121C12.4886 1.41121 12.4174 1.41121 12.1351 2.29297C12.0947 2.41955 12.0527 2.55005 12.0069 2.68321C11.6106 3.83151 10.0846 5.28785 8.2097 6.3067C7.36722 6.76435 6.52726 7.35943 6.10978 7.66696V13.6879C7.10988 14.0898 9.7709 14.5875 11.4849 14.5875C12.0169 14.5875 12.2305 14.5356 12.2916 14.5162C12.705 14.134 13.7319 11.8315 14.4485 9.87654ZM0.99708 7.23981C0.99708 6.60765 1.52322 6.09474 2.17218 6.09474C2.82114 6.09474 3.34728 6.60765 3.34728 7.23981V14.1684C3.34728 14.8006 2.82114 15.3131 2.17218 15.3131C1.52322 15.3131 0.99708 14.8006 0.99708 14.1684V7.23981Z" fill="#8B8B8B"/>
</svg>